<svg width="400" height="400" viewBox="0 0 400 400" fill="none" xmlns="http://www.w3.org/2000/svg">
<path d="M132.116 0.525271C105.759 4.10149 84.4703 21.8634 77.7543 45.9433C76.7405 49.5195 75.8535 56.5528 75.8535 61.6787C75.8535 79.2022 82.5696 93.7455 96.1284 105.905C117.29 124.62 144.915 128.435 170.892 116.156C175.074 114.249 178.748 112.58 179.128 112.58C179.635 112.58 249.203 193.88 251.104 196.741C251.484 197.456 249.584 200.913 246.669 204.489C234.504 219.509 228.168 239.536 229.689 258.133C230.449 267.431 230.322 268.742 228.295 269.696C227.028 270.292 202.825 278.755 174.44 288.411L122.866 306.054L113.996 297.113C100.057 283.047 85.6108 277.087 65.7161 277.087C42.6535 277.087 23.3924 286.742 10.7206 304.743C-13.9894 339.79 6.03204 387.353 50.1298 398.082C90.2993 407.976 130.722 378.294 130.976 338.836V328.465L184.197 310.226C213.469 300.213 237.799 291.987 238.432 291.987C238.939 291.987 242.614 296.041 246.669 300.928C263.903 321.909 287.599 333.114 314.843 333.114C329.162 333.114 339.933 330.73 352.985 324.65C380.356 311.895 398.35 285.908 399.871 256.821C400.631 241.801 398.097 230.715 390.62 216.291C382.891 201.628 370.219 189.469 355.139 182.078C340.06 174.687 332.33 172.899 315.35 172.899C299.764 172.78 291.781 174.449 278.855 180.171C273.153 182.674 271.759 182.913 270.492 181.601C263.649 174.568 197.503 95.6528 197.503 94.4607C197.503 93.7455 198.643 90.7653 200.164 87.9043C213.976 61.2019 203.965 26.9893 177.735 10.6579C164.556 2.43259 147.069 -1.50126 132.116 0.525271ZM82.9497 304.027C90.6795 307.484 99.0429 315.591 102.844 323.339C104.872 327.511 105.632 331.326 105.632 337.882C105.632 345.631 105.125 347.896 101.451 354.929C93.8474 369.472 80.0352 376.863 62.6749 375.79C47.8489 374.837 35.9374 367.327 29.3481 354.81C26.3069 348.969 25.8 346.584 25.8 337.882C25.8 329.18 26.3069 326.915 29.3481 321.551C39.9924 302.359 62.6749 294.968 82.9497 304.027Z" fill="#076AE0"/>
</svg>
