<svg width="422" height="120" viewBox="0 0 422 120" fill="none" xmlns="http://www.w3.org/2000/svg">
<path d="M39.6349 0.157581C31.7277 1.23045 25.3411 6.55902 23.3263 13.783C23.0222 14.8559 22.7561 16.9658 22.7561 18.5036C22.7561 23.7607 24.7709 28.1236 28.8385 31.7714C35.1871 37.3861 43.4744 38.5305 51.2676 34.8469C52.5221 34.2748 53.6245 33.7741 53.7385 33.7741C53.8906 33.7741 74.761 58.1639 75.3312 59.0222C75.4453 59.2368 74.8751 60.2739 74.0007 61.3468C70.3512 65.8528 68.4505 71.8609 68.9067 77.4398C69.1348 80.2292 69.0967 80.6226 68.4885 80.9087C68.1083 81.0875 60.8474 83.6266 52.332 86.5234L36.8597 91.8162L34.1987 89.134C30.017 84.9141 25.6832 83.126 19.7148 83.126C12.796 83.126 7.01771 86.0227 3.21618 91.4228C-4.19681 101.937 1.80961 116.206 15.0389 119.425C27.0898 122.393 39.2167 113.488 39.2927 101.651V98.5395L55.2592 93.0679C64.0407 90.0638 71.3396 87.5962 71.5297 87.5962C71.6818 87.5962 72.7842 88.8122 74.0007 90.2784C79.1708 96.5726 86.2797 99.9342 94.453 99.9342C98.7487 99.9342 101.98 99.219 105.896 97.3951C114.107 93.5685 119.505 85.7724 119.961 77.0464C120.189 72.5403 119.429 69.2145 117.186 64.8872C114.867 60.4885 111.066 56.8407 106.542 54.6235C102.018 52.4062 99.6991 51.8698 94.605 51.8698C89.9291 51.834 87.5342 52.3347 83.6566 54.0513C81.9459 54.8023 81.5277 54.8738 81.1476 54.4804C79.0948 52.3704 59.2508 28.6958 59.2508 28.3382C59.2508 28.1236 59.5929 27.2296 60.0491 26.3713C64.1928 18.3606 61.1895 8.0968 53.3204 3.19737C49.3668 0.729777 44.1207 -0.450377 39.6349 0.157581ZM24.8849 91.2082C27.2039 92.2453 29.7129 94.6772 30.8533 97.0017C31.4616 98.2534 31.6897 99.3978 31.6897 101.365C31.6897 103.689 31.5376 104.369 30.4352 106.479C28.1542 110.842 24.0106 113.059 18.8025 112.737C14.3547 112.451 10.7812 110.198 8.80443 106.443C7.89207 104.691 7.74 103.975 7.74 101.365C7.74 98.7541 7.89207 98.0746 8.80443 96.4653C11.9977 90.7076 18.8025 88.4903 24.8849 91.2082Z" fill="white"/>
<path d="M144.195 89V32.6328H152.945V56.4609H181.852V32.6328H190.641V89H181.852V64.0391H152.945V89H144.195ZM217.594 89.8203C213.583 89.8203 210.12 88.9609 207.203 87.2422C204.312 85.4974 202.086 83.0365 200.523 79.8594C198.987 76.6562 198.219 72.8932 198.219 68.5703V68.5312C198.219 64.2604 199 60.5234 200.562 57.3203C202.125 54.0911 204.326 51.5911 207.164 49.8203C210.003 48.0234 213.336 47.125 217.164 47.125C221.018 47.125 224.326 47.9844 227.086 49.7031C229.872 51.3958 232.021 53.8047 233.531 56.9297C235.042 60.0286 235.797 63.6354 235.797 67.75V70.6016H202.398V64.625H231.695L227.516 70.2109V66.9297C227.516 64.0391 227.073 61.6432 226.188 59.7422C225.328 57.8151 224.117 56.3828 222.555 55.4453C221.018 54.5078 219.234 54.0391 217.203 54.0391C215.198 54.0391 213.401 54.5339 211.812 55.5234C210.224 56.513 208.974 57.9714 208.062 59.8984C207.151 61.7995 206.695 64.1432 206.695 66.9297V70.2109C206.695 72.8672 207.138 75.1458 208.023 77.0469C208.935 78.9219 210.224 80.3672 211.891 81.3828C213.557 82.3724 215.523 82.8672 217.789 82.8672C219.456 82.8672 220.927 82.6198 222.203 82.125C223.479 81.6042 224.534 80.9271 225.367 80.0938C226.227 79.2344 226.826 78.2839 227.164 77.2422L227.281 76.9297H235.328L235.25 77.3594C234.911 78.974 234.273 80.5234 233.336 82.0078C232.398 83.4922 231.174 84.8333 229.664 86.0312C228.18 87.2031 226.422 88.1276 224.391 88.8047C222.359 89.4818 220.094 89.8203 217.594 89.8203ZM238.531 89L252.125 68.4922L238.727 47.9062H248.219L257.164 62.75H257.359L266.188 47.9062H275.562L262.047 68.2188L275.406 89H266.07L257.008 73.8828H256.812L247.711 89H238.531ZM281.148 89V32.6328H289.625V89H281.148ZM298.648 89V47.9062H307.164V89H298.648ZM302.906 41.5781C301.552 41.5781 300.393 41.1094 299.43 40.1719C298.466 39.2083 297.984 38.0625 297.984 36.7344C297.984 35.3542 298.466 34.1953 299.43 33.2578C300.393 32.3203 301.552 31.8516 302.906 31.8516C304.286 31.8516 305.445 32.3203 306.383 33.2578C307.346 34.1953 307.828 35.3542 307.828 36.7344C307.828 38.0625 307.346 39.2083 306.383 40.1719C305.445 41.1094 304.286 41.5781 302.906 41.5781ZM315.797 89V47.9062H324.312V54.1172H324.469C325.562 52.0339 327.164 50.3542 329.273 49.0781C331.383 47.776 333.987 47.125 337.086 47.125C341.591 47.125 345.081 48.4922 347.555 51.2266C350.029 53.9349 351.266 57.6589 351.266 62.3984V89H342.789V64.0391C342.789 60.9401 342.06 58.5573 340.602 56.8906C339.169 55.224 336.995 54.3906 334.078 54.3906C332.099 54.3906 330.367 54.8333 328.883 55.7188C327.424 56.6042 326.292 57.8411 325.484 59.4297C324.703 61.0182 324.312 62.8932 324.312 65.0547V89H315.797ZM359.898 89V32.6328H368.375V89H359.898ZM385.797 89L371.266 69.9375L376.773 63.8828L395.602 89H385.797ZM366.891 75.6797V65.4062H368.57L385.016 47.9062H394.977L375.719 68.1406H374.43L366.891 75.6797Z" fill="white"/>
</svg>
